<?xml version="1.0" encoding="iso-8859-1"?>
<!-- Generator: Adobe Illustrator 19.0.0, SVG Export Plug-In . SVG Version: 6.00 Build 0)  -->
<svg version="1.1" id="Layer_1" xmlns="http://www.w3.org/2000/svg" xmlns:xlink="http://www.w3.org/1999/xlink" x="0px" y="0px"
	 viewBox="0 0 512 512" style="enable-background:new 0 0 512 512;" xml:space="preserve">
<circle style="fill:#273B7A;" cx="256" cy="256" r="256"/>
<path style="fill:#121149;" d="M481.62,377.046l-150.242-150.24l-123.79,105.765l-79.189,94.096l81.11,81.11
	C224.587,510.543,240.123,512,256,512C353.597,512,438.429,457.38,481.62,377.046z"/>
<path style="fill:#FF5419;" d="M354.087,328.835c0,0,15.084-21.98,31.03-29.737l13.36,9.912c0,0-31.892,24.997-40.512,68.956
	L354.087,328.835z"/>
<path style="fill:#B54324;" d="M156.843,298.667c0,0,0.143,99.556-28.444,128c0,0,38.931,31.03,85.333,28.444
	c46.402-2.586,63.928-3.879,85.333,0c21.406,3.879,60.48-5.172,85.333-28.444c0,0-19.682-28.875-28.444-128H156.843z"/>
<path style="fill:#A02E13;" d="M355.954,298.667H256v154.267c18.044-0.643,29.815-0.224,43.063,2.177
	c21.406,3.879,60.48-5.172,85.333-28.444C384.398,426.667,364.716,397.791,355.954,298.667z"/>
<ellipse style="fill:#EAA22F;" cx="256.396" cy="298.667" rx="99.556" ry="14.222"/>
<path style="fill:#E09112;" d="M256.398,284.444c-0.133,0-0.264,0.002-0.396,0.002v28.441c0.133,0,0.264,0.002,0.396,0.002
	c54.982,0,99.556-6.368,99.556-14.222S311.38,284.444,256.398,284.444z"/>
<path style="fill:#EAA22F;" d="M174.177,110.325l3.406-3.406c3.431-3.431,8.994-3.431,12.424,0l140.605,140.605
	c3.431,3.431,3.431,8.994,0,12.424l-3.406,3.406c-3.431,3.431-8.994,3.431-12.424,0L174.177,122.749
	C170.746,119.318,170.746,113.755,174.177,110.325z"/>
<path style="fill:#FFFFFF;" d="M332.457,240.052c3.634-2.912,3.141-9.028-1.079-13.248l-15.86-15.86
	c-4.125-4.125-10.074-4.686-13.076-1.272c-30.646,34.868-101.497,35.961-101.497,35.961c4.067,23.423,13.369,40.007,24.245,51.741
	h64.607C302.744,266.843,322.141,248.32,332.457,240.052z"/>
<path style="fill:#D0D1D3;" d="M331.378,226.804l-7.966-7.966l-96.453,78.534h62.838c12.947-30.53,32.344-49.054,42.66-57.322
	C336.091,237.14,335.598,231.024,331.378,226.804z"/>
<path style="fill:#D35933;" d="M289.842,297.263c-17.441-5.458-44.742-19.463-58.184-54.879c-17.491,3.043-30.715,3.25-30.715,3.25
	c4.067,23.423,13.369,40.007,24.245,51.741h64.609C289.814,297.338,289.828,297.3,289.842,297.263z"/>
<path style="fill:#B54324;" d="M226.959,297.374h62.84c0.016-0.036,0.029-0.074,0.045-0.11
	c-10.338-3.236-24.142-9.476-36.469-21.397L226.959,297.374z"/>
<path style="fill:#FF5419;" d="M145.384,294.267l21.514,37.297c0,0,10.917,23.273-8.332,49.705l-47.156-78.205L145.384,294.267z"/>
<path style="fill:#E09112;" d="M145.384,294.267c1.615,3.529-4.68,8.358-14.062,10.788c-9.381,2.429-18.296,1.539-19.911-1.989
	c-1.615-3.529,4.68-8.358,14.062-10.788C134.854,289.847,143.769,290.738,145.384,294.267z"/>
<g>
</g>
<g>
</g>
<g>
</g>
<g>
</g>
<g>
</g>
<g>
</g>
<g>
</g>
<g>
</g>
<g>
</g>
<g>
</g>
<g>
</g>
<g>
</g>
<g>
</g>
<g>
</g>
<g>
</g>
</svg>
