<?xml version="1.0" encoding="iso-8859-1"?>
<!-- Generator: Adobe Illustrator 19.0.0, SVG Export Plug-In . SVG Version: 6.00 Build 0)  -->
<svg version="1.1" id="Layer_1" xmlns="http://www.w3.org/2000/svg" xmlns:xlink="http://www.w3.org/1999/xlink" x="0px" y="0px"
	 viewBox="0 0 512 512" style="enable-background:new 0 0 512 512;" xml:space="preserve">
<path style="fill:#554431;" d="M510.031,206.851c-3.33-11.11-10.685-22.203-20.712-31.239
	c-12.848-11.578-28.165-18.219-42.027-18.219c-10.042,0-18.848,3.637-24.798,10.239l-62.056,68.86v164.262L504.182,241.25
	C511.888,232.699,514.02,220.161,510.031,206.851z"/>
<path style="fill:#806749;" d="M332.914,147.49c-25.978,12.769-60.159,19.8-96.25,19.8s-70.273-7.031-96.249-19.8
	c-29.598-14.548-45.899-35.225-45.899-58.22v333.46c0,22.996,16.301,43.672,45.899,58.22c25.976,12.769,60.158,19.8,96.249,19.8
	s70.273-7.031,96.25-19.8c29.598-14.548,45.898-35.225,45.898-58.22V89.27C378.811,112.265,362.512,132.942,332.914,147.49z"/>
<path style="fill:#6A563D;" d="M130.609,236.397l-89.99-83.501c-6.489-6.022-16.634-5.642-22.657,0.846
	c-6.023,6.49-5.643,16.634,0.846,22.657l89.99,83.501c3.086,2.864,6.998,4.28,10.901,4.28c4.305,0,8.597-1.724,11.756-5.127
	C137.479,252.562,137.099,242.419,130.609,236.397z"/>
<path style="fill:#4CBA68;" d="M64.043,150.212c21.919,22.321,16.047,63.631,16.047,63.631s-41.41,5.119-63.328-17.204
	S0.714,133.009,0.714,133.009S42.124,127.89,64.043,150.212z"/>
<path style="fill:#6A563D;" d="M332.914,147.49c-25.978,12.769-60.159,19.8-96.25,19.8v333.46c36.09,0,70.273-7.031,96.25-19.8
	c29.598-14.548,45.898-35.225,45.898-58.22V89.27C378.811,112.265,362.512,132.942,332.914,147.49z"/>
<path style="fill:#C0AB90;" d="M332.914,31.05c-25.978-12.769-60.159-19.8-96.25-19.8s-70.273,7.031-96.249,19.8
	c-29.598,14.548-45.899,35.225-45.899,58.22s16.301,43.672,45.899,58.22c25.976,12.769,60.158,19.8,96.249,19.8
	s70.273-7.031,96.25-19.8c29.598-14.548,45.898-35.225,45.898-58.22S362.512,45.598,332.914,31.05z"/>
<path style="fill:#B39A7C;" d="M332.914,31.05c-25.978-12.769-60.159-19.8-96.25-19.8v156.042c36.09,0,70.273-7.031,96.25-19.8
	c29.598-14.549,45.898-35.225,45.898-58.22C378.811,66.274,362.512,45.598,332.914,31.05z"/>
<g>
	<path style="fill:#947755;" d="M235.792,146.839c-31.424,0-61.02-5.842-83.337-16.449c-23.128-10.992-35.865-25.91-35.865-42.004
		s12.738-31.011,35.865-42.003c22.317-10.608,51.913-16.449,83.337-16.449s61.02,5.842,83.337,16.449
		c23.128,10.992,35.865,25.909,35.865,42.003s-12.738,31.012-35.865,42.004C296.812,140.997,267.216,146.839,235.792,146.839z
		 M235.792,36.784c-30.427,0-58.979,5.606-80.397,15.785c-20.607,9.794-31.955,22.514-31.955,35.817s11.349,26.023,31.955,35.818
		c21.417,10.179,49.969,15.785,80.397,15.785s58.98-5.606,80.397-15.785c20.607-9.795,31.955-22.515,31.955-35.818
		s-11.349-26.023-31.955-35.817C294.771,42.39,266.218,36.784,235.792,36.784z"/>
	<path style="fill:#947755;" d="M235.792,124.081c-46.587,0-83.083-16.415-83.083-37.37s36.494-37.37,83.083-37.37
		s83.083,16.415,83.083,37.37S282.379,124.081,235.792,124.081z M235.792,56.003c-45.711,0-76.419,15.878-76.419,30.707
		s30.707,30.707,76.419,30.707s76.419-15.878,76.419-30.707S281.503,56.003,235.792,56.003z"/>
	<path style="fill:#947755;" d="M235.792,103.275c-19.945,0-40.135-5.69-40.135-16.564s20.19-16.564,40.135-16.564
		c19.944,0,40.134,5.69,40.134,16.564S255.735,103.275,235.792,103.275z M235.792,77.466c-20.357,0-32.816,5.986-32.816,9.245
		c0,3.259,12.459,9.245,32.816,9.245c20.356,0,32.815-5.986,32.815-9.245C268.606,83.452,256.147,77.466,235.792,77.466z"/>
</g>
<g>
</g>
<g>
</g>
<g>
</g>
<g>
</g>
<g>
</g>
<g>
</g>
<g>
</g>
<g>
</g>
<g>
</g>
<g>
</g>
<g>
</g>
<g>
</g>
<g>
</g>
<g>
</g>
<g>
</g>
</svg>
